/* XPM */
static char *da9651f7c74c454ecfd63be26ce5f6eaahcivqmyo4HaMLWJ[] = {
/* columns rows colors chars-per-pixel */
"128 128 3 1 ",
"  c #5E717A",
". c #829CAA",
"X c #C4EAFF",
/* pixels */
"                                                                                                                                ",
"                                                                                                                                ",
"                                                                                                                                ",
"                                                                                                                                ",
"      XXXXXXXXXXXXXXXXXXXXXXXXXXXXXXXXXXXXXXXXXXXXXXXXXXXXXXXXXXXXXXXXXXXXXXXXXXXXXXXXXXXXXXXXXXXXXXXXXXXXXXXXXXXXXXXXXXXX      ",
"      XXXXXXXXXXXXXXXXXXXXXXXXXXXXXXXXXXXXXXXXXXXXXXXXXXXXXXXXXXXXXXXXXXXXXXXXXXXXXXXXXXXXXXXXXXXXXXXXXXXXXXXXXXXXXXXXXXXX      ",
"    XX  ................................................................................................................  XX    ",
"    XX  ................................................................................................................  XX    ",
"    XXXX  ............................................................................................................  XXXX    ",
"    XXXX  ............................................................................................................  XXXX    ",
"    XX..XX  ........................................................................................................  XX..XX    ",
"    XX..XX  ........................................................................................................  XX..XX    ",
"    XX....XX  ....................................................................................................  XX....XX    ",
"    XX....XX  ....................................................................................................  XX....XX    ",
"    XX......XX  ................................................................................................  XX......XX    ",
"    XX......XX  ................................................................................................  XX......XX    ",
"    XX........XX  ............................................................................................  XX........XX    ",
"    XX........XX  ............................................................................................  XX........XX    ",
"    XX..........XX  ........................................................................................  XX..........XX    ",
"    XX..........XX  ........................................................................................  XX..........XX    ",
"    XX............XX  ....................................................................................  XX............XX    ",
"    XX............XX  ....................................................................................  XX............XX    ",
"    XX..............XX  ................................................................................  XX..............XX    ",
"    XX..............XX  ................................................................................  XX..............XX    ",
"    XX................XX  ............................................................................  XX................XX    ",
"    XX................XX  ............................................................................  XX................XX    ",
"    XX..................XX  ........................................................................  XX..................XX    ",
"    XX..................XX  ........................................................................  XX..................XX    ",
"    XX....................XX  ....................................................................  XX....................XX    ",
"    XX....................XX  ....................................................................  XX....................XX    ",
"    XX......................XX  ................................................................  XX......................XX    ",
"    XX......................XX  ................................................................  XX......................XX    ",
"    XX........................XX  ............................................................  XX........................XX    ",
"    XX........................XX  ............................................................  XX........................XX    ",
"    XX..........................XX  ........................................................  XX..........................XX    ",
"    XX..........................XX  ........................................................  XX..........................XX    ",
"    XX............................XX  ....................................................  XX............................XX    ",
"    XX............................XX  ....................................................  XX............................XX    ",
"    XX..............................XX  ................................................  XX..............................XX    ",
"    XX..............................XX  ................................................  XX..............................XX    ",
"    XX................................XX  ............................................  XX................................XX    ",
"    XX................................XX  ............................................  XX................................XX    ",
"    XX..................................XX  ........................................  XX..................................XX    ",
"    XX..................................XX  ........................................  XX..................................XX    ",
"    XX....................................XX  ....................................  XX....................................XX    ",
"    XX....................................XX  ....................................  XX....................................XX    ",
"    XX......................................XX  XXXXXXXXXXXXXXXXXXXXXXXXXXXXXXXX  XX......................................XX    ",
"    XX......................................XX  XXXXXXXXXXXXXXXXXXXXXXXXXXXXXXXX  XX......................................XX    ",
"    XX........................................XX                                XX........................................XX    ",
"    XX........................................XX                                XX........................................XX    ",
"    XX........................................XX  ............................  XX........................................XX    ",
"    XX........................................XX  ............................  XX........................................XX    ",
"    XX........................................XX  ............................  XX........................................XX    ",
"    XX........................................XX  ............................  XX........................................XX    ",
"    XX........................................XX  ............................  XX........................................XX    ",
"    XX........................................XX  ............................  XX........................................XX    ",
"    XX........................................XX  ............................  XX........................................XX    ",
"    XX........................................XX  ............................  XX........................................XX    ",
"    XX........................................XX  ............................  XX........................................XX    ",
"    XX........................................XX  ............................  XX........................................XX    ",
"    XX........................................XX  ............................  XX........................................XX    ",
"    XX........................................XX  ............................  XX........................................XX    ",
"    XX........................................XX  ............................  XX........................................XX    ",
"    XX........................................XX  ............................  XX........................................XX    ",
"    XX........................................XX  ............................  XX........................................XX    ",
"    XX........................................XX  ............................  XX........................................XX    ",
"    XX........................................XX  ............................  XX........................................XX    ",
"    XX........................................XX  ............................  XX........................................XX    ",
"    XX........................................XX  ............................  XX........................................XX    ",
"    XX........................................XX  ............................  XX........................................XX    ",
"    XX........................................XX  ............................  XX........................................XX    ",
"    XX........................................XX  ............................  XX........................................XX    ",
"    XX........................................XX  ............................  XX........................................XX    ",
"    XX........................................XX  ............................  XX........................................XX    ",
"    XX........................................XX  ............................  XX........................................XX    ",
"    XX........................................XX  ............................  XX........................................XX    ",
"    XX........................................XX  ............................  XX........................................XX    ",
"    XX........................................XX  ............................  XX........................................XX    ",
"    XX........................................XX                                XX........................................XX    ",
"    XX........................................XX                                XX........................................XX    ",
"    XX......................................XX  XXXXXXXXXXXXXXXXXXXXXXXXXXXXXXXX  XX......................................XX    ",
"    XX......................................XX  XXXXXXXXXXXXXXXXXXXXXXXXXXXXXXXX  XX......................................XX    ",
"    XX....................................XX  ....................................  XX....................................XX    ",
"    XX....................................XX  ....................................  XX....................................XX    ",
"    XX..................................XX  ........................................  XX..................................XX    ",
"    XX..................................XX  ........................................  XX..................................XX    ",
"    XX................................XX  ............................................  XX................................XX    ",
"    XX................................XX  ............................................  XX................................XX    ",
"    XX..............................XX  ................................................  XX..............................XX    ",
"    XX..............................XX  ................................................  XX..............................XX    ",
"    XX............................XX  ....................................................  XX............................XX    ",
"    XX............................XX  ....................................................  XX............................XX    ",
"    XX..........................XX  ........................................................  XX..........................XX    ",
"    XX..........................XX  ........................................................  XX..........................XX    ",
"    XX........................XX  ............................................................  XX........................XX    ",
"    XX........................XX  ............................................................  XX........................XX    ",
"    XX......................XX  ................................................................  XX......................XX    ",
"    XX......................XX  ................................................................  XX......................XX    ",
"    XX....................XX  ....................................................................  XX....................XX    ",
"    XX....................XX  ....................................................................  XX....................XX    ",
"    XX..................XX  ........................................................................  XX..................XX    ",
"    XX..................XX  ........................................................................  XX..................XX    ",
"    XX................XX  ............................................................................  XX................XX    ",
"    XX................XX  ............................................................................  XX................XX    ",
"    XX..............XX  ................................................................................  XX..............XX    ",
"    XX..............XX  ................................................................................  XX..............XX    ",
"    XX............XX  ....................................................................................  XX............XX    ",
"    XX............XX  ....................................................................................  XX............XX    ",
"    XX..........XX  ........................................................................................  XX..........XX    ",
"    XX..........XX  ........................................................................................  XX..........XX    ",
"    XX........XX  ............................................................................................  XX........XX    ",
"    XX........XX  ............................................................................................  XX........XX    ",
"    XX......XX  ................................................................................................  XX......XX    ",
"    XX......XX  ................................................................................................  XX......XX    ",
"    XX....XX  ....................................................................................................  XX....XX    ",
"    XX....XX  ....................................................................................................  XX....XX    ",
"    XX..XX  ........................................................................................................  XX..XX    ",
"    XX..XX  ........................................................................................................  XX..XX    ",
"    XXXX  ............................................................................................................  XXXX    ",
"    XXXX  ............................................................................................................  XXXX    ",
"    XX  ................................................................................................................  XX    ",
"    XX  ................................................................................................................  XX    ",
"      XXXXXXXXXXXXXXXXXXXXXXXXXXXXXXXXXXXXXXXXXXXXXXXXXXXXXXXXXXXXXXXXXXXXXXXXXXXXXXXXXXXXXXXXXXXXXXXXXXXXXXXXXXXXXXXXXXXX      ",
"      XXXXXXXXXXXXXXXXXXXXXXXXXXXXXXXXXXXXXXXXXXXXXXXXXXXXXXXXXXXXXXXXXXXXXXXXXXXXXXXXXXXXXXXXXXXXXXXXXXXXXXXXXXXXXXXXXXXX      ",
"                                                                                                                                ",
"                                                                                                                                ",
"                                                                                                                                ",
"                                                                                                                                "
};
