/* XPM */
static char *block[] = {
/* columns rows colors chars-per-pixel */
"64 64 3 1 ",
"  c #627A5E",
". c #91AA82",
"X c #D7FFC4",
/* pixels */
"                                                                ",
"                                                                ",
"   XXXXXXXXXXXXXXXXXXXXXXXXXXXXXXXXXXXXXXXXXXXXXXXXXXXXXXXXXX   ",
"  X ........................................................ X  ",
"  XX ...................................................... XX  ",
"  X.X .................................................... X.X  ",
"  X..X .................................................. X..X  ",
"  X...X ................................................ X...X  ",
"  X....X .............................................. X....X  ",
"  X.....X ............................................ X.....X  ",
"  X......X .......................................... X......X  ",
"  X.......X ........................................ X.......X  ",
"  X........X ...................................... X........X  ",
"  X.........X .................................... X.........X  ",
"  X..........X .................................. X..........X  ",
"  X...........X ................................ X...........X  ",
"  X............X .............................. X............X  ",
"  X.............X ............................ X.............X  ",
"  X..............X .......................... X..............X  ",
"  X...............X ........................ X...............X  ",
"  X................X ...................... X................X  ",
"  X.................X .................... X.................X  ",
"  X..................X .................. X..................X  ",
"  X...................X XXXXXXXXXXXXXXXX X...................X  ",
"  X....................X                X....................X  ",
"  X....................X .............. X....................X  ",
"  X....................X .............. X....................X  ",
"  X....................X .............. X....................X  ",
"  X....................X .............. X....................X  ",
"  X....................X .............. X....................X  ",
"  X....................X .............. X....................X  ",
"  X....................X .............. X....................X  ",
"  X....................X .............. X....................X  ",
"  X....................X .............. X....................X  ",
"  X....................X .............. X....................X  ",
"  X....................X .............. X....................X  ",
"  X....................X .............. X....................X  ",
"  X....................X .............. X....................X  ",
"  X....................X .............. X....................X  ",
"  X....................X                X....................X  ",
"  X...................X XXXXXXXXXXXXXXXX X...................X  ",
"  X..................X .................. X..................X  ",
"  X.................X .................... X.................X  ",
"  X................X ...................... X................X  ",
"  X...............X ........................ X...............X  ",
"  X..............X .......................... X..............X  ",
"  X.............X ............................ X.............X  ",
"  X............X .............................. X............X  ",
"  X...........X ................................ X...........X  ",
"  X..........X .................................. X..........X  ",
"  X.........X .................................... X.........X  ",
"  X........X ...................................... X........X  ",
"  X.......X ........................................ X.......X  ",
"  X......X .......................................... X......X  ",
"  X.....X ............................................ X.....X  ",
"  X....X .............................................. X....X  ",
"  X...X ................................................ X...X  ",
"  X..X .................................................. X..X  ",
"  X.X .................................................... X.X  ",
"  XX ...................................................... XX  ",
"  X ........................................................ X  ",
"   XXXXXXXXXXXXXXXXXXXXXXXXXXXXXXXXXXXXXXXXXXXXXXXXXXXXXXXXXX   ",
"                                                                ",
"                                                                "
};
